<svg width="136" height="183" xmlns="http://www.w3.org/2000/svg" xmlns:xlink="http://www.w3.org/1999/xlink" xml:space="preserve" overflow="hidden"><defs><clipPath id="clip0"><rect x="0" y="0" width="136" height="183"/></clipPath></defs><g clip-path="url(#clip0)"><path d="M43.8799 80.1001C51.5801 78.4099 56.1401 78.4099 58.7202 75.78 61.2998 73.1599 61.77 68.6499 62.8398 65.1799 63.4302 63.26 69.21 61.52 74.8198 61.79 79.3901 62.01 83.9902 63.9399 84.3501 65.1799 85.1401 67.9199 86.4199 79.6799 90.6099 81.49 94.79 83.29 98.04 82.6499 100.6 86.97 103.16 91.28 111.56 108.86 111.56 112.96 111.56 117.06 35.1499 114.8 35.1499 114.8 35.1499 114.8 36.1899 81.8 43.8799 80.1001Z" fill="#FFFFFF"/><path d="M8.02002 178.88C3.14014 178.63 5.27979 172.17 4.9502 168.97 5.12988 161.21 5.16016 153.67 5.45996 145.82 6.33984 111.43 14.1299 84.75 50.6602 75.2L50.6602 75.2C52.5898 74.6699 54.8901 74.3799 56.5098 73.21 57.6099 72.48 57.54 71.04 57.9902 69.8799 58.5 68.6799 59.8999 67.5901 61.2402 67.9199 62.6699 65.4299 62.54 68.4099 62.5698 69.6599 62.5801 69.6899 62.6001 69.72 62.6299 69.74 65.4399 71.1899 69.7598 71.3201 72.4399 71.76 76.48 72.3 80.6099 71.78 84.6299 71.49L84.6299 71.49C84.7402 71.48 84.77 71.45 84.77 71.4199 84.77 71.4099 84.75 71.3799 84.7402 71.3501 84.3701 70.48 84.7002 68.3999 85.98 69.1001 86.4399 69.52 86.52 70.1899 87 70.5901 89.9302 69.28 90.5098 72.7 91.1001 75.23 91.29 76.24 91.5 77.3201 92.2402 78.0801 92.8198 78.6001 92.8599 79.55 92.3501 80.1299 112.08 81.0801 112.64 93.3201 116.55 109.11L116.55 109.12C121.45 128.91 125.86 148.99 130.62 168.78L130.62 168.78C131.97 172.52 130.03 173.94 126.42 174.1 122.24 174.47 117.09 176.24 113.32 173.86 113.27 174.17 113.21 174.51 113.17 174.82 113.4 176.54 111.54 178.3 110 177.01L110 177.01C94.9102 177.73 75.8799 177.9 63.21 178.03 55.5801 178.07 46.77 178.09 39.5698 177.84 37.3101 177.67 35.1201 177.84 33.04 177.11 32.5898 177.49 31.79 177.32 31.6899 176.69 31.3198 175.05 30.9302 173.34 30.5498 171.69 30.52 171.55 30.3301 171.52 30.2598 171.65 29.1001 173.89 28.9102 177.47 25.73 177.43 19.71 176.36 13.8398 177.45 8.02002 178.88Z"/><path d="M78.3101 74.12C74.98 74.14 72.15 73.1899 69.99 71.63 67.3 70.67 64.05 69.1899 62.0699 67.63 61.3 67.83 60.38 67.01 59.79 66.58 56.13 63.84 53.72 60.1899 51.99 56.3199 50.67 57.98 49.21 57.5601 47.42 56.73 43.66 54.6 43.64 50.27 44.99 46.92 42.14 40.54 40.34 23.52 44.6801 16.72 45.5699 15.7 46.87 15.09 47.8101 14.05 48.65 13.14 49.4399 12.21 50.41 11.48 53.38 9.22998 58.48 8.03003 61.6801 7.45996 75.03 4.57996 85.29 9.76001 97.38 14.14 96.67 15.85 95.74 17.47 94.61 18.9399 97.61 20.0601 96.24 22.58 93.91 23.86L92.79 24.39C94.95 32.12 99.66 50.15 97.51 56.3199 95.8 65.95 88.29 74.1899 78.3101 74.12" fill="#FFFFFF"/><path d="M44.79 46.0699C42.12 39.2 40.16 23.23 44.34 16.6899 45.23 15.67 46.8199 15.16 47.76 14.12 48.6 13.21 49.17 11.8101 50.14 11.09 53.1 8.82996 58.39 7.80005 61.59 7.23999 67.72 5.91003 73.1801 6.12 78.49 7.33997 84.73 8.78003 91.0601 11.37 97.59 13.74 96.88 15.45 95.96 17.36 94.84 18.84 97.84 19.96 96.1899 22.65 93.86 23.9301L92.84 24.39C92.5699 22.9399 91.85 19.17 90.3199 19.01 88.27 18.8101 84.26 22.79 81.76 22.64 79.79 22.53 73.14 18.04 64.23 18.35 56.79 18.62 54.03 22.91 52.16 26.21 50.3 29.51 54.9399 33.61 54.9399 33.61 54.9399 33.61 52.16 37.17 52.16 38.72 52.16 40.28 52.4399 45.24 52.4399 45.24 52.4399 45.24 50.1 43.64 48.39 43.64 46.6801 43.64 45.14 46.0699 45.14 46.0699L44.79 46.0699Z" fill="#FFFFFF"/><path d="M78.33 75.04C75.4301 75.04 72.46 74.4 70.03 72.78 69.23 72.24 68.51 71.6 67.9 70.86 67.73 70.67 67.73 70.37 67.89 70.17 68.04 69.96 68.34 69.91 68.5601 70.04 81.8 78.1 95.55 68.01 96.78 53.36 97.27 48.11 96.21 42.9399 94.88 37.2 93.47 30.79 91.8101 25.42 90.49 20.21 90.01 20.02 89.47 20.08 88.99 20.25 86.75 21.1 84.83 23.64 82.38 23.64 80.52 23.76 78.79 22.84 77.15 22.11 73.53 20.3199 69.41 19.27 65.34 19.35 60.24 19.4 56.53 20.98 54.3101 24.04 52.1899 26.67 52.8199 29.49 54.55 31.58 55.67 32.91 55.84 34.03 54.55 35.29 54.05 35.84 53.65 36.47 53.35 37.15 52.98 38.04 52.78 38.99 52.76 39.95 52.7 41.95 53.21 43.8199 53.3199 45.8 53.35 46.08 53.1 46.33 52.8199 46.3 52.8101 46.3 52.6899 46.3 52.6 46.24 52.6 46.24 52.59 46.24 52.59 46.23 52.49 46.1899 52.42 46.11 52.37 46.01 51.61 45.3 50.62 44.85 49.58 44.8199 44.5 44.74 44.22 55.66 49.53 55.7 50.48 55.78 51.4301 54.99 52.28 55.11 52.88 55.29 53.09 56.0699 52.78 56.58 55.04 60.4 57.79 64.34 61.71 66.5 61.8 66.51 61.89 66.5 61.97 66.48 62.16 66.46 62.35 66.4399 62.52 66.52 62.7 66.59 62.84 66.72 62.9399 66.88 63.33 67.47 62.89 68.23 62.3 68.48 61.25 68.9301 59.9399 67.87 59.27 67.37 56.05 65.04 52.89 61.05 51.86 57.61 50.39 58.51 48.48 58.22 46.98 57.5601 43.0601 55.65 42.55 50.3 44.03 46.62 41.73 40.77 41.03 34.41 41.23 28.17 41.54 23.77 41.21 17.1801 45.59 14.4399 46.12 14.08 46.6 13.67 47.05 13.22 50.21 8.87 56.84 7.07996 61.5 6.31006 70.4 4.43005 79.61 5.93994 87.91 9.42004 91.13 10.61 94.73 11.9301 97.85 13.0699 98.29 13.23 98.64 13.73 98.4399 14.1899 97.85 15.6899 97.09 17.12 96.1801 18.45 98.9399 20.55 96.5 23.8101 94.0699 24.8 96.1801 33.76 100.49 46.74 98.55 56.4 96.91 66.21 88.76 75.24 78.33 75.04ZM70.15 7.26001C66.76 7.28003 63.38 7.68005 60.0601 8.43005 56.1 9.28003 51.51 10.5601 48.8101 13.9399 48.33 14.52 47.79 15.0601 47.22 15.55L46.67 16C44.75 17.22 43.99 19.65 43.74 21.74 42.4 29.23 43.36 38.33 44.8199 45.16 46.4399 42.64 49.8101 42.28 51.77 44.39 50.54 40.51 50.76 36.7 53.47 33.76 53.54 33.6899 53.59 33.6 53.62 33.51 53.63 33.4399 53.62 33.37 53.59 33.3101 53.5 33.15 53.39 33 53.26 32.86 51.86 31.17 50.8101 28.96 51.12 26.73 53.4 16.79 66.03 16.09 74.15 18.8 76.55 19.47 78.62 20.91 80.99 21.61 84.45 22.45 86.42 18.0601 89.87 18.25 90.79 18.24 91.71 18.5699 92.37 19.22 92.5 19.33 92.59 19.49 92.64 19.65 93.09 20.64 93.22 21.77 93.5601 22.85 94.26 22.4 95 21.9301 95.3101 21.23 95.42 20.92 95.41 20.5699 95.27 20.26 95.22 20.15 95.15 20.0601 95.0601 20 94.8 19.87 94.48 20.02 94.21 19.86 93.59 19.63 93.41 18.79 93.87 18.3199 94.89 17.15 95.74 15.84 96.4 14.4399 87.99 11.55 79.29 7.10999 70.15 7.26001L70.15 7.26001ZM53.11 51.67 53.08 51.67C51.99 51.62 51.35 50.55 50.33 50.26 49.35 49.87 48.26 49.74 47.22 49.9301 46.74 50.03 46.45 49.3 46.9301 49.09 48.97 48.12 51.91 48.1 53.66 49.75 54.26 50.35 54.11 51.66 53.11 51.67Z"/><path d="M83.1899 64.492C78.13 64.49 76.15 64.311 82.49 62.599L82.49 62.599C86.05 61.205 87.39 64.42 83.1899 64.492Z"/><path d="M83.73 51.582C82.55 51.59 78.8199 50.424 79.4301 48.857 79.59 48.472 79.97 48.136 80.41 48.169 81.55 48.605 82.61 50 84.0601 49.898 85.1899 49.876 85.97 48.707 85.67 47.603 85.36 46.41 84.0699 45.545 83.67 45.303 82.99 43.587 86.3 45.015 86.64 45.899 88.27 48.115 86.5601 51.722 83.73 51.582Z"/><path d="M72.3 43.542C72.15 43.537 72 43.504 71.87 43.446 71.47 43.44 71.0601 43.254 70.78 42.977 70.3 42.839 70.12 42.273 70.12 41.818 69.91 40.919 70.1801 39.932 70.37 39.011 61.67 38.914 70.08 37.627 72.64 37.203 79.3 36.31 85.03 36.472 91.55 36.249 92.78 36.145 93.33 37.793 92.5699 38.644 91.91 39.383 90.78 38.995 89.91 39.084 90.99 44.306 86.05 44.545 86.89 39.394 86.85 39.303 86.79 39.177 86.77 39.081 82.48 39.08 77.9399 39.11 73.67 39.091 74.11 40.038 74.05 41.255 73.6 42.188 73.52 42.591 73.34 43.072 72.92 43.27 72.76 43.445 72.53 43.545 72.3 43.542Z"/><path d="M69.056 49.997C66.648 50.012 63.629 49.082 62.14 47.285 60.341 44.879 59.746 40.105 60.587 36.934L60.578 36.93C60.573 36.928 60.568 36.926 60.563 36.924 60.553 37.027 60.404 37.114 60.133 37.175 59.25 37.358 57.542 37.266 57.092 36.761 57.025 36.686 56.998 36.583 57.018 36.485 51.688 36.585 46.619 37.391 41.407 37.959 40.241 38.056 41.142 39.485 40.263 39.752L40.232 39.752C40.006 39.764 39.785 39.681 39.623 39.521 38.945 38.667 39.818 36.99 40.781 36.834 46.206 36.272 51.701 34.997 57.157 35.912 57.412 35.588 57.779 35.43 58.28 35.43 58.729 35.452 59.174 35.527 59.605 35.653 59.842 35.712 60.063 35.768 60.255 35.797 60.504 34.401 61.901 33.64 63.137 33.229 66.812 32.014 72.87 32.34 75.847 33.602 78.656 33.279 81.569 33.052 84.387 32.832L84.391 32.832C85.53 32.743 86.709 32.651 87.847 32.556 90.394 31.734 93.205 31.363 95.811 32.124 95.858 32.121 95.9 32.12 95.936 32.12 96.18 32.12 96.218 32.175 96.289 32.274 96.303 32.294 96.319 32.316 96.337 32.339 97.436 32.834 98.264 33.862 98.545 35.031 99.127 34.771 99.76 34.645 100.398 34.662 100.785 34.665 101.172 34.693 101.555 34.746 103.615 35.745 99.092 36.746 98.709 35.777 99.203 39.958 97.65 45.732 93.59 47.691 88.604 50.142 83.474 46.162 83.736 40.722 83.575 40.681 83.441 40.571 83.369 40.421 82.921 39.397 83.488 37.49 83.837 36.403 82.087 36.121 80.253 35.958 78.539 36.509 79.481 39.693 75.857 47.535 72.769 49.051 71.684 49.781 70.341 49.992 69.056 49.997L69.056 49.997 69.056 49.997ZM67.779 33.9C65.843 33.9 63.838 34.05 62.289 35.136 61.914 35.552 61.627 36.271 61.457 37.216 60.946 39.992 61.573 44.268 62.864 46.142 63.105 46.532 63.841 47.181 64.944 47.752 69.569 49.983 74.33 48.859 76.787 40.598 78.917 35.305 74.954 33.954 70.423 33.92 69.551 33.932 68.667 33.9 67.779 33.9L67.779 33.9ZM92.987 33.213C88.133 33.128 84.581 34.821 84.639 39.877 84.665 40.065 84.63 40.257 84.54 40.424 84.46 40.553 84.34 40.654 84.199 40.711 85.455 47.478 90.89 49.075 94.615 45.332 95.952 43.938 96.844 41.952 97.193 39.588 97.771 36.414 97.549 33.082 93.526 33.217 93.334 33.214 93.157 33.213 92.987 33.213L92.987 33.213ZM76.405 33.913 76.405 33.913C76.862 34.189 77.274 34.535 77.626 34.936 77.976 35.319 78.255 35.762 78.447 36.244 79.47 35.566 80.733 35.425 81.933 35.425 82.635 35.463 83.519 35.372 84.171 35.678 84.628 34.789 85.305 34.013 86.129 33.447 85.681 33.481 85.223 33.517 84.78 33.552L84.778 33.552C82.02 33.768 79.174 33.993 76.405 33.913Z"/></g></svg>